<?xml version="1.0" encoding="utf-8"?>
<!-- Generator: Adobe Illustrator 18.1.1, SVG Export Plug-In . SVG Version: 6.00 Build 0)  -->
<!DOCTYPE svg PUBLIC "-//W3C//DTD SVG 1.1//EN" "http://www.w3.org/Graphics/SVG/1.1/DTD/svg11.dtd">
<svg version="1.1" id="Layer_1" xmlns="http://www.w3.org/2000/svg" xmlns:xlink="http://www.w3.org/1999/xlink" x="0px" y="0px"
	 viewBox="0 0 200 200" enable-background="new 0 0 200 200" xml:space="preserve">
<g>
	<g>
		<path fill="#AAC811" d="M200,99.9c0-55.2-44.8-100-100-100S0,44.6,0,99.9c0,43.6,28.9,80.7,67.8,94.4
			c8.5-33.3,10.2-48.6,11.3-62.4c0.3-3.6,1.6-6.5,3.1-6.5h33.9c1.5,0,2.8,2.9,3.1,6.5c1,13.7,4.3,32.9,12.4,63.3
			C171.8,182.2,200,144.4,200,99.9z"/>
	</g>
	<g>
		<path fill="#ED6E4D" d="M147,108l-11.7-69.1c-0.5-3-3.4-5.4-6.4-5.4H70.4c-3.1,0-5.9,2.4-6.4,5.4L52.3,108
			c-0.5,3,0.2,7.7,1.5,10.4l4.9,10.1c1.3,2.7,4.9,5,7.9,5h1.3h5.8c0.7-2.2,1.1-4,1.4-5.8c0.5-2.9,3-5,5.8-5h1.8h31.1h1.9
			c2.8,0,5.3,2.2,5.8,5c0.3,1.6,0.7,3.5,1.4,5.8h8.5h1.3c3.1,0,6.6-2.2,7.9-5l4.9-10.1C146.9,115.7,147.5,111,147,108z"/>
		<path fill="#B05C38" d="M115.8,122.6h-1.9H82.7h-1.8c-2.8,0-5.3,2.2-5.8,5c-0.3,1.8-0.7,3.7-1.4,5.8H123c-0.7-2.3-1.1-4.2-1.4-5.8
			C121.1,124.7,118.6,122.6,115.8,122.6z"/>
		<path fill="#A6D5F3" d="M136.3,94.1c1.5-0.2,2.5-1.6,2.3-3.1l-8.7-51.1c-0.1-0.3-0.6-0.8-1-0.8H70.4c-0.3,0-0.9,0.5-1,0.8L60.8,91
			c-0.3,1.5,0.8,2.9,2.3,3.1c11.5,1.4,23.8,2.2,36.6,2.2C112.5,96.3,124.8,95.5,136.3,94.1z"/>
		<path fill="#EBEBEB" d="M135.8,111.8h-14.1c-1.5,0-2.8-1.2-2.8-2.8v-3.7c0-1.5,1.2-2.9,2.7-3.1l14.1-2c1.5-0.2,2.7,0.9,2.7,2.4
			v6.4C138.6,110.6,137.4,111.8,135.8,111.8z"/>
		<path fill="#EBEBEB" d="M63.5,111.8h14.1c1.5,0,2.8-1.2,2.8-2.8v-3.7c0-1.5-1.2-2.9-2.7-3.1l-14.1-2c-1.5-0.2-2.7,0.9-2.7,2.4v6.4
			C60.7,110.6,62,111.8,63.5,111.8z"/>
	</g>
	<path fill="#D6DBE6" d="M117.1,125.3H82.2c-1.5,0-3.1,6.5-3.1,6.5l-11.3,62.4c0,0,21.5,4.3,33.2,4.3c10.7,0,30.6-3.4,30.6-3.4
		l-11.4-63.3C120.2,131.8,118.6,125.3,117.1,125.3z"/>
	<g>
		<polygon fill="#B3B7BF" points="124.3,195.3 75,195.3 76.9,184 122.4,184 		"/>
		<polygon fill="#B3B7BF" points="121,175.9 78.3,175.9 79.8,167.4 119.6,167.4 		"/>
		<polygon fill="#B3B7BF" points="118.5,161.1 80.9,161.1 82,154.5 117.3,154.5 		"/>
		<polygon fill="#B3B7BF" points="116.5,149.5 82.9,149.5 83.8,144.1 115.6,144.1 		"/>
		<polygon fill="#B3B7BF" points="114.9,140.1 84.5,140.1 85.2,135.7 114.1,135.7 		"/>
		<polygon fill="#B3B7BF" points="113.5,132.4 85.8,132.4 86.5,128.7 112.9,128.7 		"/>
	</g>
	<path fill="#D6DBE6" d="M67.8,194.2c0,0,13.1,4.3,33.2,4.3c18,0,30.6-3.4,30.6-3.4"/>
</g>
</svg>
