<?xml version="1.0" encoding="utf-8"?>
<!-- Generator: Adobe Illustrator 18.1.1, SVG Export Plug-In . SVG Version: 6.00 Build 0)  -->
<!DOCTYPE svg PUBLIC "-//W3C//DTD SVG 1.1//EN" "http://www.w3.org/Graphics/SVG/1.1/DTD/svg11.dtd">
<svg version="1.1" id="Layer_1" xmlns="http://www.w3.org/2000/svg" xmlns:xlink="http://www.w3.org/1999/xlink" x="0px" y="0px"
	 viewBox="0 0 200 200" enable-background="new 0 0 200 200" xml:space="preserve">
<circle fill="#1886CF" cx="100" cy="100" r="100"/>
<g>
	<rect x="80.7" y="70.1" fill="#1886CF" width="45.6" height="60.4"/>
	<g>
		<path fill="#FFFFFF" d="M102.3,83.7l-6.3,0l0.1,15.3l6.3,0c6.3,0,9.3-2.8,9.3-8.1S108.4,83.7,102.3,83.7z"/>
		<path fill="#FFFFFF" d="M137.4,55.2l-75.3,0.3c-3.9,0-7,3.2-7,7.1l0.3,75.3c0,3.9,3.2,7,7.1,7l75.3-0.3c3.9,0,7-3.2,7-7.1
			l-0.3-75.3C144.5,58.3,141.3,55.1,137.4,55.2z M103.1,108.1l-7,0l0.1,17.2l-11.5,0l-0.2-50.7l18.5-0.1c11,0,19.8,4,19.9,16.2
			C122.9,102.8,113.8,108.1,103.1,108.1z"/>
	</g>
</g>
</svg>
