<?xml version="1.0" encoding="utf-8"?>
<!-- Generator: Adobe Illustrator 18.1.1, SVG Export Plug-In . SVG Version: 6.00 Build 0)  -->
<!DOCTYPE svg PUBLIC "-//W3C//DTD SVG 1.1//EN" "http://www.w3.org/Graphics/SVG/1.1/DTD/svg11.dtd">
<svg version="1.1" id="Layer_1" xmlns="http://www.w3.org/2000/svg" xmlns:xlink="http://www.w3.org/1999/xlink" x="0px" y="0px"
	 viewBox="0 0 200 200" enable-background="new 0 0 200 200" xml:space="preserve">
<circle fill="#1886CF" cx="100" cy="100" r="100"/>
<g>
	<linearGradient id="SVGID_1_" gradientUnits="userSpaceOnUse" x1="44.9745" y1="111.9621" x2="155.0255" y2="111.9621">
		<stop  offset="0" style="stop-color:#F5CA47"/>
		<stop  offset="0.9956" style="stop-color:#EEC033"/>
	</linearGradient>
	<rect x="45" y="66.5" fill="url(#SVGID_1_)" width="110.1" height="90.9"/>
	<polygon fill="#CFCFD5" points="155,121.5 45,121.5 42.6,119.1 157.4,119.1 	"/>
	<rect x="80.9" y="66.5" fill="#FFDA6E" width="4.8" height="49"/>
	<rect x="114.4" y="66.5" fill="#DBA500" width="4.8" height="49"/>
	<linearGradient id="SVGID_2_" gradientUnits="userSpaceOnUse" x1="42.5821" y1="116.7469" x2="157.4179" y2="116.7469">
		<stop  offset="0" style="stop-color:#E6E6E9"/>
		<stop  offset="1" style="stop-color:#DBDBDF"/>
	</linearGradient>
	<rect x="42.6" y="114.4" fill="url(#SVGID_2_)" width="114.8" height="4.8"/>
	<polygon fill="#F3F3F5" points="157.4,114.4 42.6,114.4 45,112 155,112 	"/>
	<linearGradient id="SVGID_3_" gradientUnits="userSpaceOnUse" x1="42.5821" y1="155.0255" x2="157.4179" y2="155.0255">
		<stop  offset="0" style="stop-color:#E6E6E9"/>
		<stop  offset="1" style="stop-color:#DBDBDF"/>
	</linearGradient>
	<rect x="42.6" y="152.6" fill="url(#SVGID_3_)" width="114.8" height="4.8"/>
	<polygon fill="#F3F3F5" points="157.4,152.6 42.6,152.6 45,150.2 155,150.2 	"/>
	<g>
		<linearGradient id="SVGID_4_" gradientUnits="userSpaceOnUse" x1="61.186" y1="81.0378" x2="66.9697" y2="105.4995">
			<stop  offset="0" style="stop-color:#F2F2F4"/>
			<stop  offset="1" style="stop-color:#EBEBED"/>
		</linearGradient>
		<path fill="url(#SVGID_4_)" d="M72.5,106c-5.6,0-11.2,0-16.7,0c0-8.4,0-16.7,0-25.1c5.3-2.7,11.5-2.7,16.7,0
			C72.5,89.2,72.5,97.6,72.5,106z"/>
		<linearGradient id="SVGID_5_" gradientUnits="userSpaceOnUse" x1="53.348" y1="105.3829" x2="74.8797" y2="105.3829">
			<stop  offset="0" style="stop-color:#F5CA47"/>
			<stop  offset="1" style="stop-color:#EEC033"/>
		</linearGradient>
		<rect x="53.3" y="103.6" fill="url(#SVGID_5_)" width="21.5" height="3.6"/>
	</g>
	<path fill="#DBA500" d="M58.1,82.9c4.5-2.3,9.7-2.6,14.4-1c0-0.3,0-0.7,0-1c-5.3-2.7-11.5-2.7-16.7,0c0,8.4,0,14.4,0,22.7
		c0.8,0,1.6,0,2.4,0C58.1,95.9,58.1,90.6,58.1,82.9z"/>
	<g>
		<linearGradient id="SVGID_6_" gradientUnits="userSpaceOnUse" x1="97.0722" y1="78.6454" x2="102.8559" y2="103.1071">
			<stop  offset="0" style="stop-color:#F2F2F4"/>
			<stop  offset="1" style="stop-color:#EBEBED"/>
		</linearGradient>
		<path fill="url(#SVGID_6_)" d="M108.4,103.6c-5.6,0-11.2,0-16.7,0c0-8.4,0-16.7,0-25.1c5.3-2.7,11.5-2.7,16.7,0
			C108.4,86.8,108.4,95.2,108.4,103.6z"/>
	</g>
	<path fill="#DBA500" d="M94,80.5c4.5-2.3,9.7-2.6,14.4-1c0-0.3,0-0.7,0-1c-5.3-2.7-11.5-2.7-16.7,0c0,8.4,0,16.7,0,25.1
		c0.8,0,1.6,0,2.4,0C94,95.9,94,88.2,94,80.5z"/>
	<linearGradient id="SVGID_7_" gradientUnits="userSpaceOnUse" x1="61.8776" y1="126.428" x2="66.3881" y2="145.505">
		<stop  offset="0" style="stop-color:#F2F2F4"/>
		<stop  offset="1" style="stop-color:#EBEBED"/>
	</linearGradient>
	<rect x="55.7" y="126.3" fill="url(#SVGID_7_)" width="16.7" height="19.1"/>
	<linearGradient id="SVGID_8_" gradientUnits="userSpaceOnUse" x1="133.6499" y1="126.428" x2="138.1604" y2="145.505">
		<stop  offset="0" style="stop-color:#F2F2F4"/>
		<stop  offset="1" style="stop-color:#EBEBED"/>
	</linearGradient>
	<rect x="127.5" y="126.3" fill="url(#SVGID_8_)" width="16.7" height="19.1"/>
	<g>
		<linearGradient id="SVGID_9_" gradientUnits="userSpaceOnUse" x1="132.9583" y1="81.0378" x2="138.742" y2="105.4995">
			<stop  offset="0" style="stop-color:#F2F2F4"/>
			<stop  offset="1" style="stop-color:#EBEBED"/>
		</linearGradient>
		<path fill="url(#SVGID_9_)" d="M144.3,106c-5.6,0-11.2,0-16.7,0c0-8.4,0-16.7,0-25.1c5.3-2.7,11.5-2.7,16.7,0
			C144.3,89.2,144.3,97.6,144.3,106z"/>
		<linearGradient id="SVGID_10_" gradientUnits="userSpaceOnUse" x1="135.0459" y1="101.829" x2="136.7407" y2="108.9972">
			<stop  offset="0" style="stop-color:#F5CA47"/>
			<stop  offset="1" style="stop-color:#EEC033"/>
		</linearGradient>
		<rect x="125.1" y="103.6" fill="url(#SVGID_10_)" width="21.5" height="3.6"/>
	</g>
	<path fill="#DBA500" d="M129.9,82.9c4.5-2.3,9.7-2.6,14.4-1c0-0.3,0-0.7,0-1c-5.3-2.7-11.5-2.7-16.7,0c0,8.4,0,14.4,0,22.7
		c0.8,0,1.6,0,2.4,0C129.9,95.9,129.9,90.6,129.9,82.9z"/>
	<linearGradient id="SVGID_11_" gradientUnits="userSpaceOnUse" x1="96.2028" y1="127.6015" x2="103.5833" y2="158.8167">
		<stop  offset="0" style="stop-color:#F2F2F4"/>
		<stop  offset="1" style="stop-color:#EBEBED"/>
	</linearGradient>
	<path fill="url(#SVGID_11_)" d="M119.1,157.4c-12.8,0-25.5,0-38.3,0c0-9.2,0-18.3,0-27.5c12-6.1,26.3-6.1,38.3,0
		C119.1,139.1,119.1,148.2,119.1,157.4z"/>
	<linearGradient id="SVGID_12_" gradientUnits="userSpaceOnUse" x1="55.7404" y1="91.6266" x2="72.4873" y2="91.6266">
		<stop  offset="0" style="stop-color:#F5CA47"/>
		<stop  offset="1" style="stop-color:#EEC033"/>
	</linearGradient>
	<rect x="55.7" y="90.4" fill="url(#SVGID_12_)" width="16.7" height="2.4"/>
	<linearGradient id="SVGID_13_" gradientUnits="userSpaceOnUse" x1="127.5127" y1="91.6266" x2="144.2596" y2="91.6266">
		<stop  offset="0" style="stop-color:#F5CA47"/>
		<stop  offset="1" style="stop-color:#EEC033"/>
	</linearGradient>
	<rect x="127.5" y="90.4" fill="url(#SVGID_13_)" width="16.7" height="2.4"/>
	<rect x="98.8" y="126.3" fill="#CFCFD5" width="2.4" height="31.1"/>
	<path fill="#F57746" d="M157.4,56.9h-22.7v-9.6c0-2.6-2.2-4.8-4.8-4.8h-61c-2.6,0-4.8,2.2-4.8,4.8v9.6H42.6v3.6h1.2v3.6h112.4v-3.6
		h1.2V56.9z"/>
	<g>
		<path fill="#FFFFFF" d="M75.1,47.5v4.4h4.2v-4.4h2.5V59h-2.5v-4.8h-4.2V59h-2.6V47.5H75.1z"/>
		<path fill="#FFFFFF" d="M96.1,53.2c0,3.8-2.2,6.1-5.5,6.1c-3.4,0-5.3-2.6-5.3-5.9c0-3.5,2.2-6,5.5-6C94.2,47.3,96.1,50,96.1,53.2z
			 M87.8,53.3c0,2.3,1.2,3.8,2.9,3.8c1.7,0,2.9-1.7,2.9-3.9c0-2.1-1.1-3.8-2.9-3.8C88.9,49.4,87.8,51.1,87.8,53.3z"/>
		<path fill="#FFFFFF" d="M101.1,49.7h-3v-2.2h8.7v2.2h-3.1V59h-2.6V49.7z"/>
		<path fill="#FFFFFF" d="M116.5,54.2h-4.2v2.7h4.6V59h-7.2V47.5h7v2.1h-4.4v2.4h4.2V54.2z"/>
		<path fill="#FFFFFF" d="M120.4,47.5h2.6v9.3h4.5V59h-7.1V47.5z"/>
	</g>
	<polygon fill="#C2582E" points="155,66.5 45,66.5 43.8,64.1 156.2,64.1 	"/>
	<rect x="80.9" y="129.9" fill="#E8BB32" width="2.4" height="27.5"/>
	<linearGradient id="SVGID_14_" gradientUnits="userSpaceOnUse" x1="116.7469" y1="143.6615" x2="119.1393" y2="143.6615">
		<stop  offset="0" style="stop-color:#F5CA47"/>
		<stop  offset="1" style="stop-color:#EEC033"/>
	</linearGradient>
	<rect x="116.7" y="129.9" fill="url(#SVGID_14_)" width="2.4" height="27.5"/>
	<polygon fill="#DBA500" points="144.3,126.3 129.9,126.3 127.5,126.3 127.5,128.7 127.5,145.5 129.9,145.5 129.9,128.7 
		144.3,128.7 	"/>
	<path fill="#2FA49A" d="M128.7,145.9c0,4.3-1.2,6.7-4.2,6.7c-3,0-4.2-2.4-4.2-6.7s1.2-10,4.2-10
		C127.5,135.9,128.7,141.6,128.7,145.9z"/>
	<polygon fill="#F3F3F5" points="120.3,151.4 121.5,157.4 127.5,157.4 128.7,151.4 	"/>
	<g>
		<linearGradient id="SVGID_15_" gradientUnits="userSpaceOnUse" x1="99.4019" y1="130.2042" x2="99.4019" y2="111.6533">
			<stop  offset="0" style="stop-color:#E6E6E9"/>
			<stop  offset="1" style="stop-color:#DBDBDF"/>
		</linearGradient>
		<rect x="78.5" y="114.4" fill="url(#SVGID_15_)" width="41.9" height="15.6"/>
		<rect x="78.5" y="114.4" fill="#F57746" width="6" height="15.6"/>
		<rect x="90.4" y="114.4" fill="#F57746" width="6" height="15.6"/>
		<rect x="102.4" y="114.4" fill="#F57746" width="6" height="15.6"/>
		<rect x="114.4" y="114.4" fill="#F57746" width="6" height="15.6"/>
		<rect x="78.5" y="126.3" opacity="0.4" fill="#7A7A85" width="41.9" height="3.6"/>
	</g>
	<linearGradient id="SVGID_16_" gradientUnits="userSpaceOnUse" x1="91.6266" y1="89.2342" x2="108.3734" y2="89.2342">
		<stop  offset="0" style="stop-color:#F5CA47"/>
		<stop  offset="1" style="stop-color:#EEC033"/>
	</linearGradient>
	<rect x="91.6" y="88" fill="url(#SVGID_16_)" width="16.7" height="2.4"/>
	<polygon fill="#DBA500" points="72.5,126.3 58.1,126.3 55.7,126.3 55.7,128.7 55.7,145.5 58.1,145.5 58.1,128.7 72.5,128.7 	"/>
	<path fill="#2FA49A" d="M79.7,145.9c0,4.3-1.2,6.7-4.2,6.7c-3,0-4.2-2.4-4.2-6.7s1.2-10,4.2-10C78.5,135.9,79.7,141.6,79.7,145.9z"
		/>
	<polygon fill="#F3F3F5" points="71.3,151.4 72.5,157.4 78.5,157.4 79.7,151.4 	"/>
</g>
</svg>
