<?xml version="1.0" encoding="utf-8"?>
<!-- Generator: Adobe Illustrator 18.1.1, SVG Export Plug-In . SVG Version: 6.00 Build 0)  -->
<!DOCTYPE svg PUBLIC "-//W3C//DTD SVG 1.1//EN" "http://www.w3.org/Graphics/SVG/1.1/DTD/svg11.dtd">
<svg version="1.1" id="Layer_1" xmlns="http://www.w3.org/2000/svg" xmlns:xlink="http://www.w3.org/1999/xlink" x="0px" y="0px"
	 viewBox="0 0 200 200" enable-background="new 0 0 200 200" xml:space="preserve">
<circle fill="#99DBD9" cx="100" cy="100" r="100"/>
<g>
	<path fill="#23292E" d="M128.3,129.1c0.4,1-0.2,1.9-1.3,1.9h-9c-1.1,0-2.5-0.5-3-1c-0.5-0.5-1.9-1-3-1H88c-1.1,0-2.5,0.5-3,1
		c-0.5,0.5-1.9,1-3,1h-9c-1.1,0-1.7-0.8-1.3-1.9l1.6-4.3c0.4-1,1.6-1.9,2.7-1.9h48c1.1,0,2.3,0.8,2.7,1.9L128.3,129.1z"/>
	<g>
		<path fill="#23292E" d="M82.7,57c0.2,1.1-0.6,2-1.7,2h-1c-1.1,0-1.9-0.9-1.7-2l0.4-3c0.2-1.1,1-2,1.8-2c0.8,0,1.6,0.9,1.8,2
			L82.7,57z"/>
		<path fill="#23292E" d="M121.7,57c0.2,1.1-0.6,2-1.7,2h-1c-1.1,0-1.9-0.9-1.7-2l0.4-3c0.2-1.1,1-2,1.8-2c0.8,0,1.6,0.9,1.8,2
			L121.7,57z"/>
		<path fill="#CF4836" d="M148,83c0,1.7-1.3,3.4-2.9,3.9l-4.3,1.3c-1.6,0.5-2.9-0.5-2.9-2.1v-6c0-1.7,1.3-3,3-3h4c1.7,0,3,1.3,3,3
			V83z"/>
		<path fill="#F25540" d="M52,83c0,1.7,1.3,3.4,2.9,3.9l4.3,1.3c1.6,0.5,2.9-0.5,2.9-2.1v-6c0-1.7-1.3-3-3-3h-4c-1.7,0-3,1.3-3,3V83
			z"/>
		<path fill="#2F363D" d="M71,143c0,2.8-2.2,5-5,5h-6c-2.8,0-5-2.2-5-5v-14c0-2.8,2.2-5,5-5h6c2.8,0,5,2.2,5,5V143z"/>
		<path fill="#2F363D" d="M145,143c0,2.8-2.2,5-5,5h-6c-2.8,0-5-2.2-5-5v-13c0-2.8,2.2-5,5-5h6c2.8,0,5,2.2,5,5V143z"/>
		<path fill="#F25540" d="M145.4,92.3l-0.8-1.7c-0.3-0.8-1-1.5-1.7-2.1l-10.3-25.1c-1.5-3.6-5.8-6.5-9.7-6.5H77
			c-3.8,0-8.2,2.9-9.7,6.5L57.1,88.5c-0.7,0.6-1.3,1.3-1.7,2.1l-0.8,1.7c-0.9,2-1.6,5.5-1.6,7.7v15c0,2.2,1.8,4,4,4h86
			c2.2,0,4-1.8,4-4v-15C147,97.8,146.3,94.4,145.4,92.3z"/>
		
			<linearGradient id="SVGID_1_" gradientUnits="userSpaceOnUse" x1="-2856.3936" y1="103.5" x2="-2836.0811" y2="103.5" gradientTransform="matrix(-1 0 0 1 -2781.0811 0)">
			<stop  offset="0" style="stop-color:#F2F2F2"/>
			<stop  offset="1" style="stop-color:#EBEBEB"/>
		</linearGradient>
		<path fill="url(#SVGID_1_)" d="M55,106c0,1.7,1.3,3,3,3h12c1.7,0,3.4-1.3,3.8-2.9l1.4-5.2c0.4-1.6-0.6-2.9-2.2-2.9H58
			c-1.7,0-3,1.3-3,3V106z"/>
		<path fill="#F5773E" d="M61,100h-2c-1.7,0-2,0.3-2,2v3c0,1.7,0.3,2,2,2h2V100z"/>
		<circle opacity="0.4" fill="#7A7A7A" cx="66.5" cy="103.5" r="4.5"/>
		<path fill="#454F59" d="M146,115c1.1,0,2,0.9,2,2v2c0,1.1-0.1,2.9-0.3,4l-1.4,9c-0.2,1.1-1.2,2-2.3,2H57c-1.1,0-2.2-0.9-2.4-1.9
			l-2.1-9.1c-0.2-1.1-0.4-2.8-0.4-3.9v-2c0-1.1,0.9-2,2-2H146z"/>
		<path fill="#23292E" d="M128.3,129.1c0.4,1-0.2,1.9-1.3,1.9h-9c-1.1,0-2.5-0.5-3-1c-0.5-0.5-1.9-1-3-1H88c-1.1,0-2.5,0.5-3,1
			c-0.5,0.5-1.9,1-3,1h-9c-1.1,0-1.7-0.8-1.3-1.9l1.6-4.3c0.4-1,1.6-1.9,2.7-1.9h48c1.1,0,2.3,0.8,2.7,1.9L128.3,129.1z"/>
		<linearGradient id="SVGID_2_" gradientUnits="userSpaceOnUse" x1="124.6874" y1="103.5" x2="145" y2="103.5">
			<stop  offset="0" style="stop-color:#F2F2F2"/>
			<stop  offset="1" style="stop-color:#EBEBEB"/>
		</linearGradient>
		<path fill="url(#SVGID_2_)" d="M145,106c0,1.7-1.3,3-3,3h-12c-1.7,0-3.4-1.3-3.8-2.9l-1.4-5.2c-0.4-1.6,0.6-2.9,2.2-2.9h15
			c1.7,0,3,1.3,3,3V106z"/>
		<path fill="#F5773E" d="M139,100h2c1.7,0,2,0.3,2,2v3c0,1.7-0.3,2-2,2h-2V100z"/>
		<path fill="#39414A" d="M135,80.5c0.6,1.4-0.3,2.5-2,2.5c-1.7,0-4.8,0-7,0H75c-2.2,0-5.6,0-7.5,0c-1.9,0-3-1.1-2.5-2.5
			c0.6-1.4,1.7-4.2,2.5-6.2l3.9-9.6c0.8-2,3.3-3.7,5.5-3.7h46c2.2,0,4.7,1.7,5.5,3.7l3.9,9.6C133.3,76.3,134.4,79.1,135,80.5z"/>
		<path fill="#454D4F" d="M127.8,108.8c0.5,1.6-0.5,2.9-2.2,2.9h-51c-1.7,0-2.6-1.3-2.2-2.9L76,96.5c0.5-1.6,2.2-2.9,3.8-2.9h40.6
			c1.7,0,3.4,1.3,3.8,2.9L127.8,108.8z"/>
		<path fill="#697787" d="M143,124c0,1.1-0.9,2-2,2h-7.1c-1.1,0-2.3-0.9-2.6-1.9l-0.7-2.2c-0.3-1.1,0.3-1.9,1.4-1.9h9
			c1.1,0,2,0.9,2,2V124z"/>
		<path fill="#697787" d="M57,124c0,1.1,0.9,2,2,2h7.1c1.1,0,2.3-0.9,2.6-1.9l0.7-2.2c0.3-1.1-0.3-1.9-1.4-1.9h-9c-1.1,0-2,0.9-2,2
			V124z"/>
		<path fill="#FF7959" d="M133,85l-10,6c0,0,3.2,1.4,4,4l7-9L133,85z"/>
		<path fill="#FF7959" d="M67,85l10,6c0,0-2.5,1-4,4l-7-9L67,85z"/>
		<circle opacity="0.4" fill="#7A7A7A" cx="133.5" cy="103.5" r="4.5"/>
		<path fill="#454F59" d="M82,129c0,0.5-0.5,1-1,1h-6c-0.5,0-1-0.5-1-1l0,0c0-0.5,0.5-1,1-1h6C81.5,128,82,128.5,82,129L82,129z"/>
		<path fill="#454F59" d="M126,129c0,0.5-0.5,1-1,1h-6c-0.5,0-1-0.5-1-1l0,0c0-0.5,0.5-1,1-1h6C125.5,128,126,128.5,126,129L126,129
			z"/>
		<path fill="#DADADA" d="M129,106.5l-3.3-10.3c-0.8-2.4-3.3-4.3-5.8-4.3H80.1c-2.5,0-5.1,1.9-5.8,4.3L71,106.5
			c-0.4,1.4-0.2,2.8,0.5,3.8c0.8,1.1,2,1.7,3.5,1.7h50c1.4,0,2.7-0.6,3.5-1.7C129.2,109.3,129.4,107.9,129,106.5z M126.1,104H101v-4
			h23.8L126.1,104z M119.9,94c1.7,0,3.4,1.3,3.9,2.9l0.4,1.1H101v-4H119.9z M80.1,94H99v4H75.8l0.4-1.1C76.7,95.3,78.4,94,80.1,94z
			 M75.2,100H99v4H73.9L75.2,100z M72.9,107.1l0.4-1.1H99v4H75C73.3,110,72.4,108.7,72.9,107.1z M125,110h-24v-4h25.7l0.4,1.1
			C127.6,108.7,126.7,110,125,110z"/>
		<circle fill="#DADADA" cx="100" cy="102" r="4"/>
		<circle fill="#E8513D" cx="100" cy="102" r="2"/>
	</g>
</g>
</svg>
