<?xml version="1.0" encoding="utf-8"?>
<!-- Generator: Adobe Illustrator 18.1.1, SVG Export Plug-In . SVG Version: 6.00 Build 0)  -->
<!DOCTYPE svg PUBLIC "-//W3C//DTD SVG 1.1//EN" "http://www.w3.org/Graphics/SVG/1.1/DTD/svg11.dtd">
<svg version="1.1" id="Layer_1" xmlns="http://www.w3.org/2000/svg" xmlns:xlink="http://www.w3.org/1999/xlink" x="0px" y="0px"
	 viewBox="0 0 200 200" enable-background="new 0 0 200 200" xml:space="preserve">
<g>
	<circle fill="#003C76" cx="100" cy="100" r="100"/>
	<g>
		<g>
			<g>
				<path fill="#9B9EA6" d="M179.1,111.3l-45.4-2.3c-1.5,7.7-5.9,14.6-12.1,19.9l57.6-10.1c1-0.2,1.8-1.1,1.8-2.2v-3.5
					C181,112.2,180.2,111.3,179.1,111.3z"/>
				<g>
					<path fill="#767A80" d="M142.8,123.8c0-5.2,4.2-9.5,9.5-9.5c5.2,0,9.5,4.2,9.5,9.5c0,5.2-4.3,9.5-9.5,9.5
						C147.1,133.3,142.8,129,142.8,123.8z"/>
					<path fill="#B3B7BF" d="M152.3,134.5c-5.9,0-10.7-4.8-10.7-10.7c0-5.9,4.8-10.7,10.7-10.7c5.9,0,10.7,4.8,10.7,10.7
						C163,129.7,158.2,134.5,152.3,134.5z M152.3,115.5c-4.6,0-8.3,3.7-8.3,8.3c0,4.6,3.7,8.3,8.3,8.3c4.6,0,8.3-3.7,8.3-8.3
						C160.6,119.2,156.9,115.5,152.3,115.5z"/>
				</g>
			</g>
			<g>
				<path fill="#9B9EA6" d="M66.3,109l-45.4,2.3c-1,0.1-1.8,0.9-1.8,1.9v3.5c0,1,0.8,2,1.8,2.2l57.6,10.1
					C72.1,123.7,67.8,116.8,66.3,109z"/>
				<g>
					<path fill="#767A80" d="M38.2,123.8c0-5.2,4.2-9.5,9.5-9.5c5.2,0,9.5,4.2,9.5,9.5c0,5.2-4.3,9.5-9.5,9.5
						C42.4,133.3,38.2,129,38.2,123.8z"/>
					<path fill="#B3B7BF" d="M47.7,134.5c-5.9,0-10.7-4.8-10.7-10.7c0-5.9,4.8-10.7,10.7-10.7c5.9,0,10.7,4.8,10.7,10.7
						C58.4,129.7,53.6,134.5,47.7,134.5z M47.7,115.5c-4.6,0-8.3,3.7-8.3,8.3c0,4.6,3.7,8.3,8.3,8.3c4.6,0,8.3-3.7,8.3-8.3
						C56,119.2,52.3,115.5,47.7,115.5z"/>
				</g>
			</g>
		</g>
		<path fill="#EBEBEB" d="M134.2,104.1c0,18.1-15.3,32.7-34.2,32.7c-18.9,0-34.2-14.6-34.2-32.7S81.1,71.4,100,71.4
			C118.9,71.4,134.2,86,134.2,104.1z"/>
		<path fill="#B3B7BF" d="M88.6,120.5c0-6.3,5.1-11.4,11.4-11.4c6.3,0,11.4,5.1,11.4,11.4c0,6.3-5.1,11.4-11.4,11.4
			C93.7,131.9,88.6,126.8,88.6,120.5z"/>
		<path fill="#A6D5F3" d="M123.9,98.4c0.7,0.4,1.5,0,1.8-0.8l1.5-5.5c0.2-0.9,0.1-2.2-0.4-3c-5.5-8.5-15.4-14.3-26.8-14.3
			c-11.3,0-21.3,5.7-26.8,14.3c-0.5,0.7-0.6,2.1-0.4,3l1.5,5.5c0.2,0.9,1,1.2,1.8,0.8c6.4-3.4,14.8-5.5,23.9-5.5
			S117.5,94.9,123.9,98.4z"/>
		<g>
			<path fill="#9B9EA6" d="M100,71.4c1.4,0,2.8,0.1,4.1,0.3c0,0,0,0,0-0.1c0-15-1.8-27.2-4.1-27.2c-2.3,0-4.1,12.2-4.1,27.2
				c0,0,0,0,0,0.1C97.2,71.5,98.6,71.4,100,71.4z"/>
			<path fill="#9B9EA6" d="M94.9,71.8c-18.5,0.3-32.8,1.9-32.8,3.9c0,1.3,6.4,2.5,16.1,3.2C82.9,75.2,88.7,72.7,94.9,71.8z"/>
			<path fill="#9B9EA6" d="M105.1,71.8c6.3,0.9,12,3.4,16.7,7.1c9.7-0.7,16.1-1.9,16.1-3.2C137.9,73.7,123.6,72.1,105.1,71.8z"/>
		</g>
	</g>
</g>
</svg>
